<svg width="62" height="80" viewBox="0 0 62 80" fill="none" xmlns="http://www.w3.org/2000/svg">
<g opacity="0.8">
<path d="M59.7421 41.7016C58.8396 40.8597 57.568 40.3043 56.0637 40.0942C52.4129 39.5855 49.8463 41.6389 48.2364 43.2292C47.7486 43.7111 47.306 44.1546 46.8954 44.5664C45.8485 45.6163 45.0233 46.444 44.1697 47.1773V10.2532C44.1697 6.58576 41.1858 3.60233 37.5188 3.60233C35.7055 3.60233 34.0597 4.3319 32.8586 5.51249C32.317 2.38582 29.5845 0 26.3054 0C22.638 0 19.6545 2.98343 19.6545 6.65091V8.96908C18.565 8.00523 17.1334 7.41931 15.5678 7.41931C12.163 7.41931 9.39295 10.1893 9.39295 13.5941V15.2993C8.39987 14.4782 7.12656 13.9842 5.74051 13.9842C2.57542 13.9842 0 16.5592 0 19.7247V63.4216C0 72.0733 6.2003 79.1122 13.8217 79.1122H30.3475C34.5007 79.1122 38.392 77.025 41.0288 73.3842C41.9204 72.3352 42.7982 71.2523 43.6477 70.2041C44.2148 69.5042 44.7823 68.8047 45.3553 68.1123C50.2397 62.2089 54.5261 56.7524 58.4591 51.4303C59.4364 50.1077 60.5439 48.6085 61.0137 46.8036C61.5428 44.7715 61.0909 42.9594 59.7421 41.7016ZM58.9933 46.2778C58.6249 47.6918 57.687 48.9614 56.7799 50.1892C52.8702 55.4803 48.6068 60.9076 43.7471 66.7805C43.1695 67.4783 42.5978 68.1833 42.0261 68.8886C41.1754 69.9377 40.2959 71.0226 39.4114 72.0625C39.393 72.0838 39.3759 72.1059 39.3596 72.1289C37.1191 75.2397 33.8346 77.0237 30.3475 77.0237H13.8217C7.35166 77.0237 2.08807 70.9216 2.08807 63.4212V19.7247C2.08807 17.711 3.72636 16.0723 5.74051 16.0723C7.75465 16.0723 9.39295 17.7106 9.39295 19.7247V34.1056C9.39295 34.6823 9.86026 35.1497 10.437 35.1497C11.0137 35.1497 11.481 34.6823 11.481 34.1056V19.7247V13.5946C11.481 11.3411 13.3143 9.5078 15.5678 9.5078C17.8212 9.5078 19.6545 11.3411 19.6545 13.5946V34.1056C19.6545 34.6823 20.1218 35.1497 20.6986 35.1497C21.2753 35.1497 21.7426 34.6823 21.7426 34.1056V13.5946V6.65091C21.7426 4.13521 23.7893 2.08807 26.3054 2.08807C28.8216 2.08807 30.8683 4.13479 30.8683 6.65091V10.2532V34.1056C30.8683 34.6823 31.3356 35.1497 31.9123 35.1497C32.489 35.1497 32.9563 34.6823 32.9563 34.1056V10.2532C32.9563 7.73754 35.0031 5.6904 37.5192 5.6904C40.0353 5.6904 42.082 7.73712 42.082 10.2532V49.2942C42.082 49.6809 42.2963 50.0363 42.6379 50.2171C42.9803 50.398 43.3942 50.375 43.7136 50.157C45.4463 48.9768 46.6749 47.7453 48.3746 46.041C48.7818 45.6326 49.2199 45.1928 49.7043 44.7151C51.7907 42.6546 53.6645 41.867 55.7756 42.1622C56.8522 42.3126 57.7317 42.6813 58.3184 43.2284C59.1023 43.9596 59.3295 44.9857 58.9933 46.2778Z" fill="#070734"/>
<path d="M28.3839 61.6586C28.9605 61.6586 29.4279 61.1912 29.4279 60.6146C29.4279 60.038 28.9605 59.5706 28.3839 59.5706C27.8073 59.5706 27.3398 60.038 27.3398 60.6146C27.3398 61.1912 27.8073 61.6586 28.3839 61.6586Z" fill="#070734"/>
<path d="M28.3839 65.0302C28.9605 65.0302 29.4279 64.5628 29.4279 63.9862C29.4279 63.4096 28.9605 62.9421 28.3839 62.9421C27.8073 62.9421 27.3398 63.4096 27.3398 63.9862C27.3398 64.5628 27.8073 65.0302 28.3839 65.0302Z" fill="#070734"/>
<path d="M31.7921 61.6586C32.3687 61.6586 32.8361 61.1912 32.8361 60.6146C32.8361 60.038 32.3687 59.5706 31.7921 59.5706C31.2155 59.5706 30.748 60.038 30.748 60.6146C30.748 61.1912 31.2155 61.6586 31.7921 61.6586Z" fill="#070734"/>
<path d="M31.7921 65.0302C32.3687 65.0302 32.8361 64.5628 32.8361 63.9862C32.8361 63.4096 32.3687 62.9421 31.7921 62.9421C31.2155 62.9421 30.748 63.4096 30.748 63.9862C30.748 64.5628 31.2155 65.0302 31.7921 65.0302Z" fill="#070734"/>
<path d="M57.6187 44.9157C53.4225 50.5936 49.0538 56.1102 44.5503 61.5526C43.0979 63.3078 41.6838 65.1081 40.2059 66.8454C37.8622 70.0998 34.3159 72.1741 30.3469 72.1741H13.8207C6.76385 72.1741 1.04297 65.6168 1.04297 57.5276V63.4222C1.04297 71.5114 6.76385 78.0687 13.8207 78.0687H30.3469C34.3159 78.0687 37.8622 75.9945 40.2059 72.74C41.6838 71.0027 43.0979 69.2024 44.5503 67.4472C49.0538 62.0048 53.4225 56.4886 57.6187 50.8103C58.5934 49.4911 59.5894 48.1288 60.0024 46.5415C60.4392 44.8622 60.0705 43.5392 59.1785 42.6125C58.7237 43.4152 58.1678 44.1723 57.6187 44.9157Z" fill="#6EAEEA" fill-opacity="0.15"/>
<path d="M34.3469 56.2681H25.8238C24.8475 56.2681 24.0527 57.0628 24.0527 58.0392V66.5618C24.0527 67.5382 24.8475 68.3329 25.8238 68.3329H34.3469C35.3233 68.3329 36.1176 67.5386 36.1176 66.5618V58.0392C36.1176 57.0628 35.3229 56.2681 34.3469 56.2681ZM34.0295 66.2448H26.1408V58.3561H34.0295V66.2448Z" fill="#070734"/>
<path d="M20.4848 66.2447H11.6514C11.5571 66.2447 11.4806 66.1683 11.4806 66.0739V41.5362C11.4806 41.4418 11.5571 41.3654 11.6514 41.3654H26.5928C26.6872 41.3654 26.7636 41.4418 26.7636 41.5362V52.7754C26.7636 53.3522 27.2309 53.8195 27.8076 53.8195C28.3844 53.8195 28.8517 53.3522 28.8517 52.7754V41.5362C28.8517 40.2909 27.8381 39.2773 26.5928 39.2773H11.6514C10.4061 39.2773 9.39258 40.2905 9.39258 41.5362V66.0739C9.39258 67.3192 10.4057 68.3328 11.6514 68.3328H20.4852C21.0619 68.3328 21.5293 67.8655 21.5293 67.2887C21.5293 66.712 21.0615 66.2447 20.4848 66.2447Z" fill="#070734"/>
<path d="M18.9637 47.1006C18.1289 47.7721 14.2413 51.0667 13.9486 54.3863C13.8166 55.8801 14.8757 57.3088 16.3703 57.4315C17.1049 57.4921 17.7789 57.252 18.2909 56.8227C18.4642 56.6773 18.7269 56.8335 18.6977 57.0582C18.6079 57.7477 18.3928 58.4154 18.0633 59.0276L17.7105 59.6829C17.6232 59.8449 17.7405 60.0412 17.9243 60.0412H20.3176C20.5014 60.0412 20.6187 59.8449 20.5314 59.6829L20.1785 59.0276C19.8486 58.4154 19.6336 57.7477 19.5438 57.0582C19.5145 56.8339 19.7772 56.6773 19.9505 56.8227C20.4625 57.2515 21.1366 57.4917 21.8711 57.4315C23.3658 57.3088 24.4248 55.8801 24.2933 54.3863C24.0005 51.0667 20.113 47.7721 19.2782 47.1002C19.185 47.0254 19.0568 47.0255 18.9637 47.1006Z" fill="#F8636B"/>
</g>
</svg>
