<svg width="74" height="75" viewBox="0 0 74 75" fill="none" xmlns="http://www.w3.org/2000/svg">
<path d="M59.3889 74.6049H7.47201C6.48202 74.6049 5.67969 73.8026 5.67969 72.8126C5.67969 71.8226 6.48202 71.0203 7.47201 71.0203H59.3889C60.3789 71.0203 61.1812 71.8226 61.1812 72.8126C61.1812 73.8022 60.3785 74.6049 59.3889 74.6049Z" fill="#EBE7F2"/>
<path d="M33.4315 8.39258C19.9244 8.39258 8.97461 19.3424 8.97461 32.8494C8.97461 46.3565 19.9244 57.3063 33.4315 57.3063C46.9385 57.3063 57.8883 46.3565 57.8883 32.8494C57.8883 19.3424 46.9385 8.39258 33.4315 8.39258ZM33.4315 51.653C23.0463 51.653 14.6279 43.2342 14.6279 32.8494C14.6279 22.4647 23.0467 14.0459 33.4315 14.0459C43.8162 14.0459 52.235 22.4647 52.235 32.8494C52.235 43.2342 43.8162 51.653 33.4315 51.653Z" fill="#6EAEEA" fill-opacity="0.15"/>
<path d="M48.2569 46.2238C51.2425 42.9175 53.142 38.6119 53.383 33.8755H64.2075C64.1168 36.6475 63.6602 39.3785 62.8423 42.0076C62.6739 42.5488 62.9761 43.1245 63.5177 43.2924C64.0589 43.4612 64.6346 43.1586 64.8029 42.617C65.7831 39.4664 66.2799 36.1798 66.2799 32.8489C66.2799 23.8635 62.6505 15.7121 56.7845 9.77543C56.748 9.72123 56.7065 9.66908 56.6584 9.62145C56.6104 9.57341 56.5583 9.53153 56.5036 9.49498C50.567 3.6294 42.416 0 33.431 0C24.446 0 16.2945 3.62899 10.3583 9.49498C10.3037 9.53153 10.2515 9.57341 10.2035 9.62145C10.1554 9.66949 10.114 9.72123 10.0774 9.77543C4.21143 15.7121 0.582031 23.8635 0.582031 32.8489C0.582031 41.8344 4.21143 49.9858 10.0774 55.9224C10.114 55.9766 10.1554 56.0288 10.2035 56.0764C10.2515 56.1245 10.3037 56.1663 10.3583 56.2029C16.2949 62.0685 24.446 65.6979 33.4314 65.6979C39.0609 65.6979 44.6156 64.2496 49.4945 61.5092C49.9889 61.2317 50.1646 60.6059 49.8871 60.1115C49.6095 59.6175 48.9841 59.4414 48.4893 59.7194C44.2136 62.121 39.3832 63.4633 34.4583 63.6276V52.8018C39.1947 52.5608 43.5 50.6617 46.8066 47.6757L49.6436 50.5126C49.8439 50.713 50.1067 50.8132 50.3695 50.8132C50.6323 50.8132 50.8951 50.713 51.0955 50.5126C51.4966 50.1115 51.4966 49.4619 51.0955 49.0611L48.2569 46.2238ZM33.4306 50.7746C23.5463 50.7746 15.5053 42.7332 15.5053 32.8493C15.5053 22.9655 23.5463 14.9241 33.4306 14.9241C43.3148 14.9241 51.3558 22.9655 51.3558 32.8493C51.3558 42.7332 43.3148 50.7746 33.4306 50.7746ZM32.404 63.6189C24.687 63.3644 17.6824 60.2606 12.4076 55.3234L20.0553 47.6757C23.3619 50.6613 27.6672 52.5608 32.4036 52.8018V63.6189H32.404ZM2.66055 33.8755H13.4781C13.7191 38.6119 15.6182 42.9175 18.6042 46.2238L10.9565 53.8714C6.01894 48.5971 2.91513 41.5925 2.66055 33.8755ZM10.9561 11.8264L18.6038 19.4741C15.6182 22.7803 13.7187 27.086 13.4777 31.8224H2.66055C2.91513 24.1058 6.01894 17.1012 10.9561 11.8264ZM64.2006 31.8224H53.383C53.142 27.086 51.2429 22.7803 48.2569 19.4741L55.9046 11.8264C60.8422 17.1012 63.946 24.1058 64.2006 31.8224ZM46.8054 18.0226C43.4987 15.037 39.1935 13.1375 34.4571 12.8965V2.07934C42.1741 2.33392 49.1787 5.43773 54.4535 10.3749L46.8054 18.0226ZM32.404 12.8969C27.6676 13.1379 23.3624 15.037 20.0557 18.023L12.4076 10.3749C17.6824 5.43773 24.687 2.33392 32.404 2.07934V12.8969Z" fill="#070734"/>
<path d="M62.5916 45.1343C56.6242 45.1343 51.7695 49.9893 51.7695 55.9568C51.7695 61.9242 56.6242 66.7789 62.5916 66.7789C68.559 66.7789 73.4141 61.9242 73.4141 55.9568C73.4141 49.9893 68.559 45.1343 62.5916 45.1343ZM62.5916 64.7262C57.7562 64.7262 53.8226 60.7925 53.8226 55.9572C53.8226 51.1218 57.7567 47.1877 62.5916 47.1877C67.427 47.1877 71.361 51.1218 71.361 55.9572C71.361 60.7925 67.427 64.7262 62.5916 64.7262Z" fill="#070734"/>
<path d="M66.129 52.4159L61.4575 57.7929L59.1535 55.1818C58.7782 54.7568 58.1295 54.7162 57.7049 55.0911C57.2795 55.4664 57.2393 56.1151 57.6142 56.5401L60.6937 60.0303C60.8888 60.2512 61.1688 60.3777 61.4636 60.3777H61.4678C61.7634 60.3765 62.0447 60.2479 62.2385 60.0246L67.6791 53.7627C68.0511 53.3349 68.0055 52.6865 67.5772 52.3149C67.1498 51.9421 66.501 51.9877 66.129 52.4159Z" fill="#070734"/>
<path d="M33.7535 25.4317L35.7795 27.9722C35.8575 28.0699 35.9758 28.127 36.1006 28.127H39.3502C39.6138 28.127 39.8092 28.3721 39.7505 28.6291L39.0274 31.797C38.9995 31.919 39.0287 32.0467 39.1067 32.1444L41.1326 34.6848C41.2969 34.891 41.2275 35.1965 40.9897 35.3106L38.0621 36.7206C37.9496 36.7748 37.8679 36.8775 37.84 36.999L37.1169 40.1669C37.0581 40.4239 36.7761 40.5599 36.5383 40.4453L33.6106 39.0353C33.4981 38.9811 33.3667 38.9811 33.2542 39.0353L30.3266 40.4453C30.0888 40.5599 29.8067 40.4239 29.748 40.1669L29.0249 36.999C28.997 36.8771 28.9153 36.7748 28.8028 36.7206L25.8751 35.3106C25.6374 35.196 25.568 34.891 25.7322 34.6848L27.7582 32.1444C27.8362 32.0467 27.8654 31.919 27.8374 31.797L27.1144 28.6291C27.0556 28.3721 27.2511 28.127 27.5147 28.127H30.7643C30.8891 28.127 31.0074 28.0699 31.0854 27.9722L33.1113 25.4317C33.276 25.2256 33.5893 25.2256 33.7535 25.4317Z" fill="#F8636B"/>
</svg>
