<svg width="25" height="25" viewBox="0 0 25 25" fill="none" xmlns="http://www.w3.org/2000/svg">
<path d="M12.3864 0C5.54554 0 0 5.54554 0 12.3864C0 19.2272 5.54554 24.7727 12.3864 24.7727C19.2272 24.7727 24.7727 19.2272 24.7727 12.3864C24.7727 5.54554 19.2272 0 12.3864 0ZM17.1118 6.30786L15.3986 6.30862C14.0552 6.30862 13.7954 6.94701 13.7954 7.88368V9.94913H16.999L16.9975 13.1842H13.7957V21.486H10.4542V13.1842H7.66092V9.94913H10.4542V7.56335C10.4542 4.79463 12.1459 3.28673 14.6155 3.28673L17.1121 3.29053V6.30786H17.1118Z" fill="#38659F"/>
</svg>
