<svg width="25" height="25" viewBox="0 0 25 25" fill="none" xmlns="http://www.w3.org/2000/svg">
<path d="M12.6129 24.7727C19.4554 24.7727 24.9993 19.2288 24.9993 12.3864C24.9993 5.54393 19.4554 0 12.6129 0C5.77049 0 0.226562 5.54393 0.226562 12.3864C0.226562 19.2288 5.77049 24.7727 12.6129 24.7727ZM5.89436 12.118L17.8369 7.51336C18.3912 7.31311 18.8753 7.64858 18.6957 8.48672L18.6967 8.48569L16.6633 18.0655C16.5126 18.7447 16.109 18.9098 15.5444 18.5899L12.4478 16.3077L10.9542 17.7466C10.789 17.9117 10.6497 18.0511 10.3297 18.0511L10.5496 14.8998L16.2886 9.71504C16.5384 9.49518 16.2328 9.37132 15.9036 9.59014L8.81134 14.0554L5.75398 13.1017C5.09027 12.8911 5.07582 12.438 5.89436 12.118Z" fill="#2FC6F6"/>
</svg>
